<svg xmlns="http://www.w3.org/2000/svg" viewBox="0 0 32 32" width="32" height="32">
  <circle cx="16" cy="16" r="15" fill="#ffffff" stroke="#000000" stroke-width="1"/>
  <!-- Hexágono central -->
  <polygon points="16,6 20,10 20,14 16,18 12,14 12,10" fill="#000000"/>
  <!-- Pentágonos alrededor -->
  <polygon points="16,6 12,10 8,8 10,4 14,4" fill="#000000"/>
  <polygon points="20,10 24,8 26,12 22,14 20,14" fill="#000000"/>
  <polygon points="16,18 20,14 22,18 20,22 16,22" fill="#000000"/>
  <polygon points="12,14 8,16 6,12 8,8 12,10" fill="#000000"/>
  <polygon points="16,22 12,18 10,22 12,26 16,26" fill="#000000"/>
</svg>
