<svg xmlns="http://www.w3.org/2000/svg" viewBox="0 0 64 64" width="64" height="64">
  <!-- Fondo del balón -->
  <circle cx="32" cy="32" r="30" fill="#ffffff" stroke="#000000" stroke-width="2"/>
  
  <!-- Patrón del balón de fútbol -->
  <!-- Pentágono central -->
  <polygon points="32,12 42,18 38,30 26,30 22,18" fill="#000000"/>
  
  <!-- Hexágonos alrededor del pentágono central -->
  <polygon points="32,12 22,18 18,8 28,4 38,8 42,18" fill="none" stroke="#000000" stroke-width="2"/>
  
  <!-- Líneas de conexión -->
  <line x1="22" y1="18" x2="26" y2="30" stroke="#000000" stroke-width="2"/>
  <line x1="42" y1="18" x2="38" y2="30" stroke="#000000" stroke-width="2"/>
  <line x1="26" y1="30" x2="18" y2="42" stroke="#000000" stroke-width="2"/>
  <line x1="38" y1="30" x2="46" y2="42" stroke="#000000" stroke-width="2"/>
  
  <!-- Pentágonos inferiores -->
  <polygon points="26,30 18,42 22,52 32,48 32,38" fill="#000000"/>
  <polygon points="38,30 46,42 42,52 32,48 32,38" fill="#000000"/>
  
  <!-- Líneas adicionales para completar el patrón -->
  <line x1="18" y1="8" x2="28" y2="4" stroke="#000000" stroke-width="2"/>
  <line x1="38" y1="8" x2="46" y2="4" stroke="#000000" stroke-width="2"/>
  <line x1="18" y1="42" x2="8" y2="38" stroke="#000000" stroke-width="2"/>
  <line x1="46" y1="42" x2="56" y2="38" stroke="#000000" stroke-width="2"/>
  <line x1="22" y1="52" x2="18" y2="60" stroke="#000000" stroke-width="2"/>
  <line x1="42" y1="52" x2="46" y2="60" stroke="#000000" stroke-width="2"/>
</svg>
